<mxfile host="app.diagrams.net" agent="Mozilla/5.0 (Macintosh; Intel Mac OS X 10_15_7) AppleWebKit/537.36 (KHTML, like Gecko) Chrome/141.0.0.0 Safari/537.36" version="28.2.7">
  <diagram name="Page-1" id="ftjcTTRfvaaxuHuYVkQb">
    <mxGraphModel dx="976" dy="568" grid="1" gridSize="10" guides="1" tooltips="1" connect="1" arrows="1" fold="1" page="1" pageScale="1" pageWidth="850" pageHeight="1100" math="0" shadow="0">
      <root>
        <mxCell id="0" />
        <mxCell id="1" parent="0" />
        <mxCell id="hhdQ_Sf367nD7q4z_e1c-6" style="edgeStyle=orthogonalEdgeStyle;rounded=0;orthogonalLoop=1;jettySize=auto;html=1;exitX=0.5;exitY=0;exitDx=0;exitDy=0;entryX=0;entryY=0.5;entryDx=0;entryDy=0;" edge="1" parent="1" source="hhdQ_Sf367nD7q4z_e1c-1" target="hhdQ_Sf367nD7q4z_e1c-5">
          <mxGeometry relative="1" as="geometry" />
        </mxCell>
        <mxCell id="hhdQ_Sf367nD7q4z_e1c-10" style="edgeStyle=orthogonalEdgeStyle;rounded=0;orthogonalLoop=1;jettySize=auto;html=1;exitX=1;exitY=0.5;exitDx=0;exitDy=0;entryX=0;entryY=0.5;entryDx=0;entryDy=0;" edge="1" parent="1" source="hhdQ_Sf367nD7q4z_e1c-1" target="hhdQ_Sf367nD7q4z_e1c-2">
          <mxGeometry relative="1" as="geometry" />
        </mxCell>
        <mxCell id="hhdQ_Sf367nD7q4z_e1c-1" value="Safety filtering" style="rounded=1;whiteSpace=wrap;html=1;" vertex="1" parent="1">
          <mxGeometry x="200" y="200" width="80" height="40" as="geometry" />
        </mxCell>
        <mxCell id="hhdQ_Sf367nD7q4z_e1c-9" style="edgeStyle=orthogonalEdgeStyle;rounded=0;orthogonalLoop=1;jettySize=auto;html=1;exitX=1;exitY=0.5;exitDx=0;exitDy=0;entryX=0;entryY=0.5;entryDx=0;entryDy=0;" edge="1" parent="1" source="hhdQ_Sf367nD7q4z_e1c-2" target="hhdQ_Sf367nD7q4z_e1c-3">
          <mxGeometry relative="1" as="geometry" />
        </mxCell>
        <mxCell id="hhdQ_Sf367nD7q4z_e1c-2" value="Prompt enhancer" style="rounded=1;whiteSpace=wrap;html=1;" vertex="1" parent="1">
          <mxGeometry x="360" y="200" width="80" height="40" as="geometry" />
        </mxCell>
        <mxCell id="hhdQ_Sf367nD7q4z_e1c-8" style="edgeStyle=orthogonalEdgeStyle;rounded=0;orthogonalLoop=1;jettySize=auto;html=1;exitX=1;exitY=0.5;exitDx=0;exitDy=0;entryX=0;entryY=0.5;entryDx=0;entryDy=0;" edge="1" parent="1" source="hhdQ_Sf367nD7q4z_e1c-3" target="hhdQ_Sf367nD7q4z_e1c-4">
          <mxGeometry relative="1" as="geometry" />
        </mxCell>
        <mxCell id="hhdQ_Sf367nD7q4z_e1c-17" style="edgeStyle=orthogonalEdgeStyle;rounded=0;orthogonalLoop=1;jettySize=auto;html=1;exitX=0.5;exitY=1;exitDx=0;exitDy=0;entryX=0.5;entryY=0;entryDx=0;entryDy=0;" edge="1" parent="1" source="hhdQ_Sf367nD7q4z_e1c-3" target="hhdQ_Sf367nD7q4z_e1c-16">
          <mxGeometry relative="1" as="geometry" />
        </mxCell>
        <mxCell id="hhdQ_Sf367nD7q4z_e1c-3" value="Response generator" style="rounded=1;whiteSpace=wrap;html=1;" vertex="1" parent="1">
          <mxGeometry x="520" y="200" width="80" height="40" as="geometry" />
        </mxCell>
        <mxCell id="hhdQ_Sf367nD7q4z_e1c-7" style="edgeStyle=orthogonalEdgeStyle;rounded=0;orthogonalLoop=1;jettySize=auto;html=1;exitX=0.5;exitY=0;exitDx=0;exitDy=0;" edge="1" parent="1" source="hhdQ_Sf367nD7q4z_e1c-4" target="hhdQ_Sf367nD7q4z_e1c-5">
          <mxGeometry relative="1" as="geometry" />
        </mxCell>
        <mxCell id="hhdQ_Sf367nD7q4z_e1c-22" style="edgeStyle=orthogonalEdgeStyle;rounded=0;orthogonalLoop=1;jettySize=auto;html=1;exitX=1;exitY=0.5;exitDx=0;exitDy=0;" edge="1" parent="1" source="hhdQ_Sf367nD7q4z_e1c-4" target="hhdQ_Sf367nD7q4z_e1c-21">
          <mxGeometry relative="1" as="geometry" />
        </mxCell>
        <mxCell id="hhdQ_Sf367nD7q4z_e1c-4" value="Response safety evaluator" style="rounded=1;whiteSpace=wrap;html=1;" vertex="1" parent="1">
          <mxGeometry x="680" y="200" width="80" height="40" as="geometry" />
        </mxCell>
        <mxCell id="hhdQ_Sf367nD7q4z_e1c-24" style="edgeStyle=orthogonalEdgeStyle;rounded=0;orthogonalLoop=1;jettySize=auto;html=1;exitX=1;exitY=0.5;exitDx=0;exitDy=0;" edge="1" parent="1" source="hhdQ_Sf367nD7q4z_e1c-5" target="hhdQ_Sf367nD7q4z_e1c-21">
          <mxGeometry relative="1" as="geometry" />
        </mxCell>
        <mxCell id="hhdQ_Sf367nD7q4z_e1c-5" value="Rejection response generator" style="rounded=1;whiteSpace=wrap;html=1;" vertex="1" parent="1">
          <mxGeometry x="680" y="80" width="80" height="40" as="geometry" />
        </mxCell>
        <mxCell id="hhdQ_Sf367nD7q4z_e1c-12" style="edgeStyle=orthogonalEdgeStyle;rounded=0;orthogonalLoop=1;jettySize=auto;html=1;exitX=1;exitY=0.5;exitDx=0;exitDy=0;entryX=0;entryY=0.5;entryDx=0;entryDy=0;" edge="1" parent="1" source="hhdQ_Sf367nD7q4z_e1c-11" target="hhdQ_Sf367nD7q4z_e1c-1">
          <mxGeometry relative="1" as="geometry" />
        </mxCell>
        <mxCell id="hhdQ_Sf367nD7q4z_e1c-11" value="Query" style="rounded=1;whiteSpace=wrap;html=1;" vertex="1" parent="1">
          <mxGeometry x="40" y="200" width="80" height="40" as="geometry" />
        </mxCell>
        <mxCell id="hhdQ_Sf367nD7q4z_e1c-13" value="Safe" style="text;html=1;whiteSpace=wrap;strokeColor=none;fillColor=none;align=center;verticalAlign=middle;rounded=0;" vertex="1" parent="1">
          <mxGeometry x="280" y="190" width="80" height="30" as="geometry" />
        </mxCell>
        <mxCell id="hhdQ_Sf367nD7q4z_e1c-14" value="Unsafe" style="text;html=1;whiteSpace=wrap;strokeColor=none;fillColor=none;align=center;verticalAlign=middle;rounded=0;" vertex="1" parent="1">
          <mxGeometry x="240" y="130" width="80" height="30" as="geometry" />
        </mxCell>
        <mxCell id="hhdQ_Sf367nD7q4z_e1c-15" value="Unsafe" style="text;html=1;whiteSpace=wrap;strokeColor=none;fillColor=none;align=center;verticalAlign=middle;rounded=0;" vertex="1" parent="1">
          <mxGeometry x="720" y="130" width="80" height="30" as="geometry" />
        </mxCell>
        <mxCell id="hhdQ_Sf367nD7q4z_e1c-18" style="edgeStyle=orthogonalEdgeStyle;rounded=0;orthogonalLoop=1;jettySize=auto;html=1;exitX=0.5;exitY=0;exitDx=0;exitDy=0;entryX=0.5;entryY=1;entryDx=0;entryDy=0;" edge="1" parent="1" source="hhdQ_Sf367nD7q4z_e1c-16" target="hhdQ_Sf367nD7q4z_e1c-3">
          <mxGeometry relative="1" as="geometry" />
        </mxCell>
        <mxCell id="hhdQ_Sf367nD7q4z_e1c-16" value="LLM" style="rounded=1;whiteSpace=wrap;html=1;" vertex="1" parent="1">
          <mxGeometry x="520" y="320" width="80" height="40" as="geometry" />
        </mxCell>
        <mxCell id="hhdQ_Sf367nD7q4z_e1c-20" style="edgeStyle=orthogonalEdgeStyle;rounded=0;orthogonalLoop=1;jettySize=auto;html=1;exitX=0;exitY=0.5;exitDx=0;exitDy=0;entryX=0;entryY=0.75;entryDx=0;entryDy=0;" edge="1" parent="1" source="hhdQ_Sf367nD7q4z_e1c-19" target="hhdQ_Sf367nD7q4z_e1c-3">
          <mxGeometry relative="1" as="geometry" />
        </mxCell>
        <mxCell id="hhdQ_Sf367nD7q4z_e1c-19" value="Session management" style="rounded=1;whiteSpace=wrap;html=1;" vertex="1" parent="1">
          <mxGeometry x="520" y="440" width="80" height="40" as="geometry" />
        </mxCell>
        <mxCell id="hhdQ_Sf367nD7q4z_e1c-25" style="edgeStyle=orthogonalEdgeStyle;rounded=0;orthogonalLoop=1;jettySize=auto;html=1;exitX=0.5;exitY=1;exitDx=0;exitDy=0;entryX=1;entryY=0.5;entryDx=0;entryDy=0;" edge="1" parent="1" source="hhdQ_Sf367nD7q4z_e1c-21" target="hhdQ_Sf367nD7q4z_e1c-19">
          <mxGeometry relative="1" as="geometry" />
        </mxCell>
        <mxCell id="hhdQ_Sf367nD7q4z_e1c-21" value="Response" style="rounded=1;whiteSpace=wrap;html=1;" vertex="1" parent="1">
          <mxGeometry x="840" y="200" width="80" height="40" as="geometry" />
        </mxCell>
        <mxCell id="hhdQ_Sf367nD7q4z_e1c-23" value="Safe" style="text;html=1;whiteSpace=wrap;strokeColor=none;fillColor=none;align=center;verticalAlign=middle;rounded=0;" vertex="1" parent="1">
          <mxGeometry x="760" y="190" width="80" height="30" as="geometry" />
        </mxCell>
      </root>
    </mxGraphModel>
  </diagram>
</mxfile>
